<svg xmlns="http://www.w3.org/2000/svg" viewBox="0 0 520 140" width="520" height="140">
  <!-- Icon (Vibbo brand) -->
  <g transform="translate(0, 5)">
    <rect width="130" height="130" rx="28" ry="28" fill="#486FDD"/>
    <!-- Vibbo "Vi" mark, scaled to fit -->
    <g transform="translate(65, 65) scale(0.018, -0.018) translate(-2560, -2560)" fill="#ffffff" stroke="none">
      <path d="M3860 4039 l0 -382 78 6 c95 7 216 44 302 94 99 57 236 200 287 299 47 90 78 196 89 297 l6 67 -381 0 -381 0 0 -381z"/>
      <path d="M640 3268 c0 -2 233 -579 518 -1283 l518 -1280 384 -3 385 -2 518 1264 c285 695 521 1273 524 1285 l5 21 -398 -2 -399 -3 -310 -837 c-171 -460 -313 -839 -315 -842 -3 -2 -145 375 -317 837 l-311 842 -401 3 c-221 1 -401 1 -401 0z"/>
    </g>
  </g>

  <!-- Text: "Vibbo" -->
  <text x="155" y="88" font-family="-apple-system, BlinkMacSystemFont, 'Segoe UI', Roboto, Helvetica, Arial, sans-serif" font-size="64" font-weight="700" fill="#0D1D49" letter-spacing="-1">Vibbo</text>
  <!-- Subtitle -->
  <text x="157" y="116" font-family="-apple-system, BlinkMacSystemFont, 'Segoe UI', Roboto, Helvetica, Arial, sans-serif" font-size="18" font-weight="400" fill="#64748b" letter-spacing="0.5">for Home Assistant</text>
</svg>
